# xmcd CD database file
#
# Track frame offsets:
#	150
#	19933
#	30897
#	42628
#	61436
#	84626
#	98217
#	117707
#	134579
#	160186
#	182589
#	198283
#
# Disc length: 2799 seconds
#
# Revision: 0
# Processed by: cddbd v1.4PL0 Copyright (c) Steve Scherf et al.
# Submitted via: CDex 1.50beta10
#
DISCID=a40aed0c
DTITLE=Chick Willis - Easy On The Soul
DYEAR=2003
DGENRE=Blues
TTITLE0=Bin-Laden
TTITLE1=Ease The Pain
TTITLE2=Jaunita
TTITLE3=Turn Back The Hands Of Time
TTITLE4=Nothing Takes The Place Of You
TTITLE5=Old Man With Young Ideas
TTITLE6=Unchain My Heart
TTITLE7=You Don't Know What You Got Until You Lose It
TTITLE8=What I Say
TTITLE9=Stoop Down Baby Let Daddy See
TTITLE10=I Play My Guitar
TTITLE11=It's Too Late
EXTD=YEAR: 2003
EXTT0=
EXTT1=
EXTT2=
EXTT3=
EXTT4=
EXTT5=
EXTT6=
EXTT7=
EXTT8=
EXTT9=
EXTT10=
EXTT11=
PLAYORDER=
